M48
; DRILL file {KiCad 8.0.0} date 2025-06-12T16:21:02-0400
; FORMAT={-:-/ absolute / metric / decimal}
; #@! TF.CreationDate,2025-06-12T16:21:02-04:00
; #@! TF.GenerationSoftware,Kicad,Pcbnew,8.0.0
; #@! TF.FileFunction,Plated,1,2,PTH
FMAT,2
METRIC
; #@! TA.AperFunction,Plated,PTH,ViaDrill
T1C0.500
; #@! TA.AperFunction,Plated,PTH,ComponentDrill
T2C0.800
; #@! TA.AperFunction,Plated,PTH,ComponentDrill
T3C0.900
; #@! TA.AperFunction,Plated,PTH,ComponentDrill
T4C1.000
; #@! TA.AperFunction,Plated,PTH,ComponentDrill
T5C1.016
; #@! TA.AperFunction,Plated,PTH,ComponentDrill
T6C1.100
%
G90
G05
T1
X129.413Y-86.309
X156.718Y-85.039
X157.988Y-61.544
X157.988Y-86.309
X164.973Y-79.959
X170.688Y-79.959
X180.848Y-79.959
X198.628Y-93.929
X198.628Y-95.199
T2
X126.873Y-52.019
X137.033Y-52.019
X140.843Y-52.019
X151.003Y-52.019
X154.813Y-52.019
X164.973Y-52.019
X168.783Y-52.019
X178.943Y-52.019
T3
X93.213Y-64.084
X95.753Y-64.084
X100.833Y-64.084
X103.373Y-64.084
X110.998Y-64.084
X113.538Y-64.084
X118.613Y-64.084
X121.153Y-64.084
X126.233Y-64.084
X128.773Y-64.084
X136.398Y-64.084
X138.938Y-64.084
X144.013Y-64.084
X146.553Y-64.084
X151.633Y-64.084
X154.173Y-64.084
X161.793Y-64.084
X164.333Y-64.084
X182.118Y-64.084
X184.658Y-64.084
X202.433Y-64.084
X204.973Y-64.084
X222.753Y-64.084
X225.293Y-64.084
T4
X188.468Y-46.939
X191.008Y-46.939
X193.548Y-46.939
X196.088Y-46.939
X198.628Y-46.939
T5
X126.873Y-46.939
X129.413Y-46.939
X131.953Y-46.939
X134.493Y-46.939
X136.017Y-95.199
X137.033Y-46.939
X138.557Y-95.199
X139.573Y-46.939
X141.097Y-95.199
X142.113Y-46.939
X143.637Y-95.199
X144.653Y-46.939
X146.177Y-95.199
X147.193Y-46.939
X148.717Y-95.199
X149.733Y-46.939
X151.257Y-95.199
X153.797Y-46.939
X153.797Y-95.199
X156.337Y-46.939
X158.877Y-46.939
X158.877Y-95.199
X161.417Y-46.939
X161.417Y-95.199
X163.957Y-46.939
X163.957Y-95.199
X166.497Y-46.939
X166.497Y-95.199
X169.037Y-46.939
X169.037Y-95.199
X171.577Y-46.939
X171.577Y-95.199
T6
X91.948Y-76.634
X91.948Y-83.134
X96.448Y-76.634
X96.448Y-83.134
X99.513Y-76.634
X99.513Y-83.134
X104.013Y-76.634
X104.013Y-83.134
X109.673Y-76.634
X109.673Y-83.134
X114.173Y-76.634
X114.173Y-83.134
X117.348Y-76.634
X117.348Y-83.134
X121.848Y-76.634
X121.848Y-83.134
X124.968Y-76.634
X124.968Y-83.134
X129.468Y-76.634
X129.468Y-83.134
X135.128Y-76.634
X135.128Y-83.134
X139.628Y-76.634
X139.628Y-83.134
X142.748Y-76.634
X142.748Y-83.134
X147.248Y-76.634
X147.248Y-83.134
X150.368Y-76.634
X150.368Y-83.134
X154.868Y-76.634
X154.868Y-83.134
X160.528Y-76.634
X160.528Y-83.134
X165.028Y-76.634
X165.028Y-83.134
X170.688Y-76.634
X170.688Y-83.134
X175.188Y-76.634
X175.188Y-83.134
X180.848Y-76.634
X180.848Y-83.134
X185.348Y-76.634
X185.348Y-83.134
X191.008Y-76.634
X191.008Y-83.134
X195.508Y-76.634
X195.508Y-83.134
X201.168Y-76.634
X201.168Y-83.134
X205.668Y-76.634
X205.668Y-83.134
X211.618Y-76.634
X211.618Y-83.134
X216.118Y-76.634
X216.118Y-83.134
X221.778Y-76.634
X221.778Y-83.134
X226.278Y-76.634
X226.278Y-83.134
M30
